<?xml version="1.0" encoding="UTF-8"?>
<svg id="Layer_2" xmlns="http://www.w3.org/2000/svg" version="1.1" viewBox="0 0 222.5 66.9">
  <!-- Generator: Adobe Illustrator 29.7.1, SVG Export Plug-In . SVG Version: 2.1.1 Build 8)  -->
  <defs>
    <style>
      .st0, .st1 {
        fill: #231f20;
      }

      .st2 {
        fill: none;
        stroke: #231f20;
        stroke-miterlimit: 10;
      }

      .st3, .st1 {
        isolation: isolate;
      }

      .st1 {
        font-family: Arial-BoldMT, Arial;
        font-size: 9px;
        font-weight: 700;
        letter-spacing: 0em;
      }
    </style>
  </defs>
  <g id="Layer_3">
    <path d="M204.4,27.5v-.4s-.1.1-.1-.1v-.6c0-.1.1-.3.1-.4,0-.4-.3-1.2-.3-1.7s0-.5-.1-.8c0,0,0-.3,0-.2,0,0-.1.7,0,.9,0,.6.2,1.3.2,1.9,0,1.1-.3,2.2-.2,3.2,0,.5.1,1,0,1.5,0,.6-.5,1.6-.3,2.2.1.3.7.7,0,.7s-.7,0-.7-.2v-1.1c0-.6-.2-1.3-.1-1.9v-.5c0-.3-.1-.7-.2-1,0-.7,0-1.4-.1-2.1v-.3.2c0,1-.1,1.9-.3,2.8v.7c0,.7-.1,1.4-.1,2.2v1c0,0-.1.2-.2.2h-.7c-.2,0,.1-.4.2-.5.5-.7-.1-1.8-.2-2.5v-1c0-1.2-.2-2.4-.2-3.6s.3-1.7.2-2.5v-.3h0c0,.5,0,.9-.2,1.3,0,.3-.3,1.1-.3,1.4,0,0,.1.2.1.3v.7h0s0-.1,0,0c0,0,.2.3,0,.4-.3,0-.6-.5-.6-.7v-2.6c0-.5.2-.9.2-1.4s-.1-1.7.6-2.1c.3-.2,1-.3.9-.8v-.4h-.2c0-.1-.1-.3-.1-.5h0c0-.3,0-.5.1-.7.3-.5,1.1-.6,1.4,0,.1.2,0,.5,0,.6h0v.5s-.1.1-.1.2v.4c-.1.5.7.6,1,.8.4.3.4,1.2.4,1.7s.1.8.2,1.2c.1.8,0,1.5,0,2.3s.2.8,0,1.2c-.1.2-.2.4-.5.3h.2Z"/>
    <path class="st2" d="M222,.5v65.9H.5V.5h221.5Z"/>
    <g class="st3">
      <g class="st3">
        <text class="st1" transform="translate(17.9 58.1)"><tspan x="0" y="0">BRAIN EMULATION TECHNOLOGIES</tspan></text>
      </g>
    </g>
    <path class="st2" d="M17.4,42.8v-24.7l4.7,24.7h5.8c0,0,4.9-25,4.9-25v25h40.9v-24.7l4.7,24.6h5.8l4.9-25v25h15.4c1-1.3.6-5.5,2.1-5.7.8,0,7.7-.2,8,.2l1.2,5.5h53.9v-18.3l9.4,18.3c6.4.3,12.9-.2,19.2,0,1.1,0,2.4.6,3.5.6,4.6.3,9.6-1.7,13.1-5.8v-14.4h-8.1"/>
    <path class="st2" d="M206.8,30.5h1.1c.4,3.2-.5,4-2.6,4.8-2.8,1.2-6.2.3-7.4-3.7-1.1-3.6-1.1-11.5,1.2-14.3s7.1-2.4,7.9,2.4l7.4-1.9c-.4-3.3-2-6.5-4.2-8-3.1-2.2-8.7-2.2-12.1-1.1-8.5,2.8-10.7,16.8-7.1,26.5h-4.6V8.7h-7.4v18.3l-9.4-18.3h-7.1v26.6h-4.6V8.7h-7.9v26.6h-17l13.7-19.8v-6.8h-21.8v7.3h12.3l-12.9,18.7-2.3.3-7.2-26-8.6-.3-7.1,26.3h-3.7V8.7h-10.2l-3.8,20.2-3.9-20.2h-10.1v26.2h-16.3v-6.6h11.8v-7h-11.8v-5.4h13v-7.3h-20.9v26.2h-4V8.7h-10.2l-3.8,19.9-3.6-19.9h-10.4v33.7"/>
    <path class="st2" d="M112.9,29.6l-2.7-11.4-2.7,11.4h5.4Z"/>
    <path class="st0" d="M12.4,45.1h.4c0-.2,0-.4.1-.6s.4-.2.6,0h.1c.2,0,.3-.2.5,0s0,.4.1.5c0,0,.2,0,.2.2.2.3,0,.8-.5.8,0,0,.1.3.1.4h1.5c.2,0,.2.2,0,.2h-.6c-.3,0-.7,0-1,0v.3c0,0-.4.7-.3.8h.9c.4,0,1.1.6,1.5.7.3.2.1.3-.1.2-.2,0-.4-.2-.6-.3-.1,0-.6-.3-.7-.3h-1.1v.8c0,.3.3,1.1.4,1.3.2.5.6,1,.8,1.4,0,0,0,.2-.2,0-.2-.5-.6-1-.8-1.5,0-.2-.1-.5-.2-.7h0c-.1.7-.3,1.6-.7,2.3-.1.3-.5.7-.8.7s-.4-.4-.4-.5c-.2-.5-.3-1.2-.3-1.7h-.3c-.4,0-.9-.2-1-.7v-.3s-.4,0-.5,0c-.4,0-1.2.2-1.6,0-.5,0-.2-.8,0-1,.3-.4.9-.8,1.3-1.1l.8-.5h-.8c-.4,0-.8,0-1.1-.2h-.5c-.2,0-.2-.2,0-.2h0c.5,0,1,.2,1.5.2h1.2c.3,0,.5-.2.8-.4h0c0-.4-.2-.7-.3-1-.4-.4-.8-.7-1.2-1.1v-.2c.1,0,.8.6.9.8.2.2.4.3.5.6s.2.5.2.7h0c.3,0,.5-.5.8-.7h0v-.5c0,0,0-.3-.1-.4,0-.2-.3-.5-.3-.7v-.2h.2s.3.6.3.7c.1.3.1.6.2.8h0v.2Z"/>
  </g>
</svg>