<?xml version="1.0" encoding="UTF-8"?>
<svg id="Layer_2" data-name="Layer 2" xmlns="http://www.w3.org/2000/svg" viewBox="0 0 222.52 66.93">
  <defs>
    <style>
      .cls-1 {
        fill: none;
        stroke: #231f20;
        stroke-miterlimit: 10;
      }

      .cls-2 {
        fill: #231f20;
        font-family: Arial-BoldMT, Arial;
        font-size: 9px;
        font-weight: 700;
      }

      .cls-3 {
        letter-spacing: .12em;
      }

      .cls-4 {
        letter-spacing: .12em;
      }

      .cls-5 {
        letter-spacing: .05em;
      }
    </style>
  </defs>
  <g id="Layer_3" data-name="Layer 3">
    <path d="M204.35,27.53c-.05-.08.09-.38.07-.39-.02-.02-.12.1-.15-.13-.01-.14,0-.44.03-.58.02-.12.12-.26.14-.37.06-.38-.26-1.24-.33-1.66-.04-.25-.08-.52-.1-.77,0-.03.02-.27-.05-.22-.05.04-.1.74-.09.85.05.64.22,1.26.24,1.93.04,1.1-.26,2.17-.22,3.22.02.5.11,1,.07,1.51-.05.63-.48,1.62-.26,2.19.11.28.69.68,0,.74-.2.02-.66.06-.69-.21.02-.28,0-.57.02-.85,0-.09.04-.2.05-.29.04-.65-.16-1.29-.12-1.93,0-.16.05-.32.05-.49,0-.32-.13-.66-.17-.98-.09-.69-.09-1.39-.15-2.07,0-.08-.02-.21-.06-.28-.02.05-.03.11-.04.16-.09.96-.1,1.88-.29,2.83-.07.33-.01.43,0,.73.03.74-.13,1.43-.1,2.17,0,.1.05.19.05.29,0,.19.02.53,0,.71-.02.13-.11.18-.24.2-.16.03-.59.02-.72-.07-.19-.12.1-.37.16-.46.48-.73-.1-1.75-.16-2.52-.02-.34.06-.66.07-1,.06-1.23-.25-2.42-.2-3.64.03-.84.28-1.67.2-2.51,0-.09-.05-.18-.05-.28l-.04.04c-.04.41-.08.83-.16,1.23-.07.34-.34,1.14-.28,1.44.02.09.11.21.14.33.04.24,0,.48,0,.72-.01.04-.04.05-.08.04,0,0-.02-.1-.06-.05-.02.02.18.32.07.4-.3.04-.58-.45-.61-.71-.03-.22.03-.38.05-.58.04-.65-.04-1.31,0-1.95.03-.45.21-.93.24-1.39.04-.68-.15-1.74.58-2.13.32-.17,1.04-.26.95-.76-.01-.06-.11-.35-.14-.4s-.07-.05-.1-.08c-.08-.11-.15-.32-.12-.46,0-.05.06-.08.07-.13.05-.22-.03-.39.11-.65.28-.54,1.14-.57,1.38,0,.1.23.04.45.09.65.01.05.06.08.07.13.02.11,0,.28-.06.37-.04.08-.11.1-.14.16-.01.03-.13.39-.13.43-.09.54.83.6,1.13.84.43.34.36,1.19.4,1.67.03.4.1.78.16,1.18.13.79.04,1.53.08,2.31.02.47.18.76-.09,1.2-.1.17-.25.36-.47.32Z"/>
    <path class="cls-1" d="M222.02.5v65.93H.5V.5h221.52Z"/>
    <text class="cls-2" transform="translate(17.91 58.13)"><tspan class="cls-3" x="0" y="0">BRAIN EMUL</tspan><tspan class="cls-5" x="67.3" y="0">A</tspan><tspan class="cls-4" x="74.21" y="0">TION TECHNOLOGIES</tspan></text>
    <path class="cls-1" d="M17.4,42.84v-24.66l4.66,24.65,5.81-.12,4.86-24.84v24.98h40.88v-24.66l4.67,24.63h5.75s4.91-24.95,4.91-24.95v24.98h15.45c.98-1.32.63-5.47,2.08-5.71.83-.14,7.71-.16,8.04.16l1.15,5.55h53.88v-18.34l9.45,18.29c6.41.32,12.85-.24,19.25.04,1.06.05,2.42.58,3.48.64,4.62.27,9.63-1.73,13.12-5.85v-14.39h-8.08"/>
    <path class="cls-1" d="M206.75,30.51h1.11c.41,3.22-.52,3.98-2.6,4.84-2.8,1.16-6.24.33-7.43-3.67-1.08-3.63-1.08-11.46,1.22-14.27s7.09-2.36,7.89,2.35l7.42-1.9c-.42-3.28-2.01-6.49-4.21-8.03-3.12-2.18-8.73-2.16-12.1-1.05-8.48,2.8-10.67,16.79-7.15,26.46h-4.65V8.7h-7.43v18.34l-9.41-18.34h-7.08v26.56h-4.65V8.7h-7.9v26.56h-16.96l13.7-19.76v-6.8h-21.83v7.27h12.31l-12.88,18.67-2.3.31-7.23-25.95-8.57-.33-7.11,26.26h-3.72V8.7h-10.22l-3.83,20.24-3.95-20.24h-10.1v26.24h-16.26v-6.64h11.85v-6.96h-11.85v-5.38h13.01v-7.27h-20.9v26.24h-3.95V8.7h-10.22l-3.83,19.92-3.6-19.92h-10.45v33.67"/>
    <path class="cls-1" d="M112.86,29.56l-2.67-11.39-2.67,11.39h5.34Z"/>
    <polygon class="cls-1" points="113.01 29.56 107.67 29.56 110.34 18.18 113.01 29.56"/>
    <path d="M12.42,45.07c.15-.06.3-.05.45-.02-.07-.22-.04-.44.14-.6s.38-.17.58-.06c.04.02.09.09.12.09.16,0,.28-.2.49-.03.2.16.06.4.11.49,0,.01.16.07.23.17.22.35-.06.81-.47.78.06.14.14.27.14.43.02.02.43-.07.5-.08.28-.02.76.01,1.04.06.18.03.23.21,0,.21-.17,0-.43-.08-.61-.1-.34-.03-.66.06-.99.11-.03.02-.07.21-.09.26-.05.11-.37.7-.3.77.31.01.62-.04.94-.02.43.03,1.1.57,1.53.71.26.23.12.28-.15.17-.21-.09-.41-.23-.61-.34-.13-.07-.56-.32-.66-.34-.15-.03-.84-.03-1,0-.09.01-.09.06-.1.13-.03.17-.06.49-.06.66,0,.26.27,1.06.38,1.32.2.48.56.95.78,1.42.04.11-.08.15-.16.09-.25-.51-.6-1-.81-1.52-.09-.23-.15-.47-.22-.7,0-.03-.03-.1-.05-.11-.13.8-.29,1.68-.67,2.41-.13.26-.47.74-.8.72-.2-.01-.36-.38-.42-.54-.2-.54-.26-1.17-.3-1.74-.09,0-.18.05-.27.06-.44.05-.93-.25-1.04-.69-.02-.07-.02-.3-.06-.31-.05-.02-.45.11-.53.13-.45.1-1.17.22-1.61.1-.51-.14-.17-.76.04-1.02.34-.44.88-.77,1.33-1.09l.82-.48c-.28-.01-.56.03-.84.02-.36-.02-.75-.11-1.11-.17-.17-.03-.37-.03-.52-.07-.18-.03-.18-.22,0-.21.03,0,.07.03.11.03.48.07,1,.19,1.47.22.41.02.83-.04,1.24-.02.3-.06.54-.25.81-.37.02-.03,0-.08,0-.12-.06-.27-.23-.61-.31-.89-.37-.38-.77-.72-1.17-1.07-.08-.08-.09-.24.06-.18.11.04.75.63.88.76.19.18.37.35.46.59s.16.5.25.74c0,.03.01.05,0,.08.33-.14.53-.47.82-.69.02-.01.03-.03.03-.05,0-.05-.07-.39-.08-.47-.03-.12-.06-.26-.1-.37-.08-.23-.26-.45-.33-.65-.02-.05-.03-.1-.02-.15.08-.04.13-.02.18.04.06.07.29.56.33.67.1.27.12.57.19.84Z"/>
  </g>
</svg>