<?xml version="1.0" encoding="UTF-8"?>
<svg id="Layer_2" xmlns="http://www.w3.org/2000/svg" version="1.1" viewBox="0 0 222.5 66.9">
  <!-- Generator: Adobe Illustrator 29.7.1, SVG Export Plug-In . SVG Version: 2.1.1 Build 8)  -->
  <defs>
    <style>
      .st0 {
        fill: #231f20;
      }

      .st1 {
        fill: none;
        stroke: #231f20;
        stroke-miterlimit: 10;
      }
    </style>
  </defs>
  <g id="Layer_3">
    <path d="M204.4,27.5v-.4s-.1.1-.1-.1v-.6c0-.1.1-.3.1-.4,0-.4-.3-1.2-.3-1.7,0-.2,0-.5-.1-.8,0,0,0-.3,0-.2,0,0-.1.7,0,.9,0,.6.2,1.3.2,1.9,0,1.1-.3,2.2-.2,3.2,0,.5.1,1,0,1.5,0,.6-.5,1.6-.3,2.2.1.3.7.7,0,.7-.2,0-.7,0-.7-.2v-1.1c0-.6-.2-1.3-.1-1.9v-.5c0-.3-.1-.7-.2-1,0-.7,0-1.4-.1-2.1v-.3.2c0,1-.1,1.9-.3,2.8v.7c0,.7-.1,1.4-.1,2.2v1c0,.1-.1.2-.2.2h-.7c-.2-.1.1-.4.2-.5.5-.7-.1-1.8-.2-2.5v-1c0-1.2-.2-2.4-.2-3.6,0-.8.3-1.7.2-2.5v-.3h0c0,.5,0,.9-.2,1.3,0,.3-.3,1.1-.3,1.4,0,0,.1.2.1.3v.7h0s0-.1,0,0c0,0,.2.3,0,.4-.3,0-.6-.5-.6-.7v-2.6c0-.5.2-.9.2-1.4,0-.7-.1-1.7.6-2.1.3-.2,1-.3.9-.8l-.1-.4h-.1c0-.1-.1-.3-.1-.5v-.1c0-.2,0-.4.1-.6.3-.5,1.1-.6,1.4,0,.1.2,0,.5,0,.6v.5s-.1.1-.1.2l-.1.4c0,.5.8.6,1.1.8.4.3.4,1.2.4,1.7,0,.4.1.8.2,1.2.1.8,0,1.5,0,2.3,0,.5.2.8,0,1.2-.1.2-.2.4-.5.3h0l.2.1Z"/>
    <path class="st1" d="M222,.5v65.9H.5V.5h221.5Z"/>
    <path class="st1" d="M17.4,42.8v-24.7l4.7,24.7h5.8c0-.1,4.9-25,4.9-25v25h40.9v-24.7l4.7,24.6h5.8l4.9-25v25h15.4c1-1.3.6-5.5,2.1-5.7.8-.1,7.7-.2,8,.2l1.2,5.5h53.9v-18.3l9.4,18.3c6.4.3,12.9-.2,19.2,0,1.1,0,2.4.6,3.5.6,4.6.3,9.6-1.7,13.1-5.8v-14.4h-8.1"/>
    <path class="st1" d="M206.8,30.5h1.1c.4,3.2-.5,4-2.6,4.8-2.8,1.2-6.2.3-7.4-3.7-1.1-3.6-1.1-11.5,1.2-14.3s7.1-2.4,7.9,2.4l7.4-1.9c-.4-3.3-2-6.5-4.2-8-3.1-2.2-8.7-2.2-12.1-1.1-8.5,2.8-10.7,16.8-7.1,26.5h-4.6V8.7h-7.4v18.3l-9.4-18.3h-7.1v26.6h-4.6V8.7h-7.9v26.6h-17l13.7-19.8v-6.8h-21.8v7.3h12.3l-12.9,18.7-2.3.3-7.2-26-8.6-.3-7.1,26.3h-3.7V8.7h-10.2l-3.8,20.2-3.9-20.2h-10.1v26.2h-16.3v-6.6h11.8v-7h-11.8v-5.4h13v-7.3h-20.9v26.2h-4V8.7h-10.2l-3.8,19.9-3.6-19.9h-10.4v33.7"/>
    <path class="st1" d="M112.9,29.6l-2.7-11.4-2.7,11.4h5.4Z"/>
    <path class="st0" d="M12.4,45.1h.4c0-.2,0-.4.1-.6s.4-.2.6,0h.1c.2,0,.3-.2.5,0s0,.4.1.5c0,0,.2,0,.2.2.2.3,0,.8-.5.8,0,.1.1.3.1.4h1.5c.2,0,.2.2,0,.2h-.6c-.3,0-.7,0-1,.1v.3c0,.1-.4.7-.3.8h.9c.4,0,1.1.6,1.5.7.3.2.1.3-.1.2-.2,0-.4-.2-.6-.3-.1,0-.6-.3-.7-.3h-1l-.1.1v.7c0,.3.3,1.1.4,1.3.2.5.6,1,.8,1.4,0,.1,0,.2-.2,0-.2-.5-.6-1-.8-1.5,0-.2-.1-.5-.2-.7v-.1c-.1.8-.3,1.7-.7,2.4-.1.3-.5.7-.8.7-.2,0-.4-.4-.4-.5-.2-.5-.3-1.2-.3-1.7h-.3c-.4,0-.9-.2-1-.7v-.3s-.4.1-.5.1c-.4,0-1.2.2-1.6,0-.5-.1-.2-.8,0-1,.3-.4.9-.8,1.3-1.1l.8-.5h-.8c-.4,0-.8-.1-1.1-.2h-.5c-.2,0-.2-.2,0-.2h.1c.5,0,1,.2,1.5.2h1.2c.3,0,.5-.2.8-.4v-.1c0-.3-.2-.6-.3-.9-.4-.4-.8-.7-1.2-1.1v-.2c.1,0,.8.6.9.8.2.2.4.3.5.6s.2.5.2.7h0c.3-.1.5-.5.8-.7h0v-.5c0-.1,0-.3-.1-.4,0-.2-.3-.5-.3-.7v-.2h.2s.3.6.3.7c.1.3.1.6.2.8h0v.2Z"/>
  </g>
  <g>
    <path class="st0" d="M18.716,51.957h2.575c.51,0,.89.021,1.141.063.25.043.475.132.672.266.198.136.363.314.495.539.132.224.198.476.198.754,0,.302-.081.578-.244.83-.162.252-.383.441-.661.566.393.115.694.31.905.585s.316.6.316.972c0,.293-.068.577-.204.854-.137.276-.323.498-.559.663-.236.166-.526.268-.872.306-.217.023-.74.038-1.569.044h-2.193v-6.442ZM20.017,53.029v1.489h.853c.507,0,.822-.007.945-.021.223-.026.398-.104.525-.23.128-.128.191-.295.191-.504,0-.198-.055-.36-.165-.485-.109-.124-.273-.2-.49-.226-.129-.015-.5-.022-1.112-.022h-.747ZM20.017,55.591v1.723h1.204c.469,0,.766-.013.892-.039.193-.035.351-.121.472-.257.122-.137.183-.319.183-.548,0-.193-.047-.356-.141-.492-.094-.134-.229-.232-.406-.294-.178-.062-.562-.093-1.154-.093h-1.05Z"/>
    <path class="st0" d="M26.295,58.399v-6.442h2.738c.688,0,1.189.058,1.5.174.312.115.562.321.75.617s.281.635.281,1.015c0,.484-.142.883-.426,1.198-.284.314-.709.514-1.274.595.281.165.513.345.696.541s.43.545.741,1.046l.787,1.257h-1.556l-.94-1.402c-.334-.5-.562-.816-.686-.946-.123-.131-.253-.22-.391-.269-.138-.048-.356-.072-.655-.072h-.264v2.689h-1.301ZM27.596,54.682h.962c.624,0,1.014-.026,1.169-.079s.277-.144.365-.272.132-.29.132-.483c0-.217-.058-.392-.174-.525-.116-.133-.279-.217-.49-.252-.105-.015-.422-.022-.949-.022h-1.015v1.635Z"/>
    <path class="st0" d="M39.68,58.399h-1.415l-.562-1.463h-2.575l-.532,1.463h-1.38l2.509-6.442h1.375l2.58,6.442ZM37.285,55.851l-.888-2.391-.87,2.391h1.758Z"/>
    <path class="st0" d="M41.411,58.399v-6.442h1.301v6.442h-1.301Z"/>
    <path class="st0" d="M45.043,58.399v-6.442h1.266l2.637,4.302v-4.302h1.208v6.442h-1.305l-2.597-4.201v4.201h-1.208Z"/>
    <path class="st0" d="M56.19,58.399v-6.442h4.777v1.09h-3.476v1.429h3.234v1.085h-3.234v1.753h3.599v1.086h-4.9Z"/>
    <path class="st0" d="M63.256,58.399v-6.442h1.947l1.169,4.395,1.156-4.395h1.951v6.442h-1.208v-5.071l-1.279,5.071h-1.252l-1.274-5.071v5.071h-1.208Z"/>
    <path class="st0" d="M71.842,51.957h1.301v3.489c0,.554.016.913.048,1.076.056.264.188.476.397.636.209.159.496.239.859.239.369,0,.647-.075.835-.227.188-.15.3-.336.338-.556s.057-.585.057-1.095v-3.563h1.301v3.384c0,.773-.035,1.32-.105,1.639-.07.32-.2.59-.389.809-.189.221-.442.396-.758.525-.316.131-.729.195-1.239.195-.615,0-1.082-.07-1.4-.213-.318-.142-.569-.326-.753-.554-.185-.227-.306-.465-.365-.714-.085-.369-.127-.914-.127-1.635v-3.437Z"/>
    <path class="st0" d="M79.465,58.399v-6.39h1.301v5.304h3.234v1.086h-4.535Z"/>
    <path class="st0" d="M91.817,58.399h-1.415l-.562-1.463h-2.575l-.532,1.463h-1.38l2.509-6.442h1.375l2.58,6.442ZM89.422,55.851l-.888-2.391-.87,2.391h1.758Z"/>
    <path class="st0" d="M94.37,58.399v-5.353h-1.912v-1.09h5.119v1.09h-1.906v5.353h-1.301Z"/>
    <path class="st0" d="M99.458,58.399v-6.442h1.301v6.442h-1.301Z"/>
    <path class="st0" d="M102.813,55.218c0-.656.099-1.207.295-1.652.146-.328.347-.622.6-.883.254-.261.531-.454.833-.58.401-.17.864-.256,1.389-.256.949,0,1.709.295,2.278.884.57.589.855,1.408.855,2.456,0,1.041-.283,1.854-.849,2.441-.565.588-1.321.881-2.268.881-.958,0-1.72-.292-2.285-.876-.565-.585-.849-1.39-.849-2.415ZM104.154,55.174c0,.729.168,1.282.505,1.659.337.376.766.564,1.283.564s.944-.187,1.277-.561c.332-.373.498-.934.498-1.681,0-.738-.161-1.289-.485-1.652-.323-.363-.753-.545-1.29-.545s-.968.184-1.296.552c-.328.367-.492.922-.492,1.663Z"/>
    <path class="st0" d="M111.17,58.399v-6.442h1.266l2.637,4.302v-4.302h1.209v6.442h-1.306l-2.597-4.201v4.201h-1.209Z"/>
    <path class="st0" d="M123.769,58.399v-5.353h-1.912v-1.09h5.119v1.09h-1.906v5.353h-1.301Z"/>
    <path class="st0" d="M128.896,58.399v-6.442h4.777v1.09h-3.477v1.429h3.234v1.085h-3.234v1.753h3.6v1.086h-4.9Z"/>
    <path class="st0" d="M140.102,56.03l1.261.4c-.193.703-.515,1.226-.965,1.566-.449.342-1.021.512-1.712.512-.855,0-1.559-.292-2.109-.876-.551-.585-.826-1.384-.826-2.397,0-1.072.277-1.905.831-2.498.554-.594,1.281-.891,2.185-.891.787,0,1.428.233,1.92.699.293.275.513.671.659,1.187l-1.288.308c-.076-.334-.234-.598-.477-.791-.241-.193-.535-.29-.881-.29-.478,0-.865.171-1.162.515-.298.342-.446.897-.446,1.665,0,.814.146,1.395.439,1.74s.674.519,1.143.519c.346,0,.643-.109.892-.33.249-.219.428-.564.537-1.037Z"/>
    <path class="st0" d="M143.562,58.399v-6.442h1.301v2.536h2.549v-2.536h1.301v6.442h-1.301v-2.816h-2.549v2.816h-1.301Z"/>
    <path class="st0" d="M151.15,58.399v-6.442h1.266l2.637,4.302v-4.302h1.209v6.442h-1.306l-2.597-4.201v4.201h-1.209Z"/>
    <path class="st0" d="M158.453,55.218c0-.656.099-1.207.295-1.652.146-.328.347-.622.6-.883.254-.261.531-.454.833-.58.401-.17.864-.256,1.389-.256.949,0,1.709.295,2.278.884.57.589.855,1.408.855,2.456,0,1.041-.283,1.854-.849,2.441-.565.588-1.321.881-2.268.881-.958,0-1.72-.292-2.285-.876-.565-.585-.849-1.39-.849-2.415ZM159.794,55.174c0,.729.168,1.282.505,1.659.337.376.766.564,1.283.564s.944-.187,1.277-.561c.332-.373.498-.934.498-1.681,0-.738-.161-1.289-.485-1.652-.323-.363-.753-.545-1.29-.545s-.968.184-1.296.552c-.328.367-.492.922-.492,1.663Z"/>
    <path class="st0" d="M166.832,58.399v-6.39h1.301v5.304h3.234v1.086h-4.535Z"/>
    <path class="st0" d="M173.111,55.218c0-.656.099-1.207.295-1.652.146-.328.347-.622.6-.883.254-.261.531-.454.833-.58.401-.17.864-.256,1.389-.256.949,0,1.709.295,2.278.884.57.589.855,1.408.855,2.456,0,1.041-.283,1.854-.849,2.441-.565.588-1.321.881-2.268.881-.958,0-1.72-.292-2.285-.876-.565-.585-.849-1.39-.849-2.415ZM174.452,55.174c0,.729.168,1.282.505,1.659.337.376.766.564,1.283.564s.944-.187,1.277-.561c.332-.373.498-.934.498-1.681,0-.738-.161-1.289-.485-1.652-.323-.363-.753-.545-1.29-.545s-.968.184-1.296.552c-.328.367-.492.922-.492,1.663Z"/>
    <path class="st0" d="M184.453,56.03v-1.085h2.803v2.566c-.271.264-.667.496-1.184.696-.518.201-1.041.301-1.571.301-.674,0-1.261-.141-1.763-.424-.5-.282-.877-.687-1.129-1.213-.252-.525-.378-1.098-.378-1.716,0-.671.141-1.267.422-1.788s.692-.922,1.235-1.2c.412-.214.927-.321,1.542-.321.8,0,1.425.168,1.874.504.45.335.739.799.868,1.391l-1.292.242c-.091-.316-.262-.566-.512-.75-.251-.183-.563-.274-.938-.274-.568,0-1.021.181-1.355.54-.336.361-.503.896-.503,1.604,0,.765.169,1.338.51,1.721.339.382.784.573,1.336.573.271,0,.545-.054.819-.16.273-.107.509-.236.705-.389v-.818h-1.489Z"/>
    <path class="st0" d="M189.497,58.399v-6.442h1.301v6.442h-1.301Z"/>
    <path class="st0" d="M193.116,58.399v-6.442h4.777v1.09h-3.477v1.429h3.234v1.085h-3.234v1.753h3.6v1.086h-4.9Z"/>
    <path class="st0" d="M199.87,56.304l1.266-.123c.076.425.23.736.464.936.232.199.547.299.942.299.419,0,.734-.089.947-.266.212-.178.318-.385.318-.622,0-.152-.045-.282-.134-.389-.09-.107-.246-.2-.469-.279-.152-.053-.499-.146-1.041-.281-.697-.173-1.187-.385-1.468-.638-.396-.354-.593-.786-.593-1.296,0-.328.093-.635.278-.921.187-.285.454-.503.805-.652.35-.149.772-.225,1.268-.225.809,0,1.417.178,1.826.532.408.354.623.828.644,1.419l-1.301.058c-.056-.331-.175-.569-.358-.714-.183-.146-.458-.218-.823-.218-.379,0-.675.078-.889.233-.138.1-.206.232-.206.399,0,.152.064.283.193.392.164.138.562.281,1.195.43.633.15,1.101.305,1.404.464.303.16.54.378.712.655.171.276.257.619.257,1.025,0,.369-.103.716-.308,1.037-.205.323-.495.562-.87.719-.375.157-.843.235-1.401.235-.815,0-1.44-.188-1.877-.564-.437-.377-.697-.925-.782-1.646Z"/>
  </g>
</svg>